# xmcd
# 
# Track frame offsets:
#     150
#     26512
#     41935
#     54880
#     71012
#     84810
#     100895
#     118640
#     134295
#     146090
#     167442
#     185942
#     199640
#     212830
#     229195
#     245275
#     265365
#     279370
#     290642
#     307727
# 
# Disc length: 4291
# 
# Revision: 5
# Processed by: cddbd v1.5.2PL0 Copyright (c) Steve Scherf et al.
# Submitted via: fre:ac v1.0.31
# 
DISCID=2310c114
DTITLE=Columbia Blues - Furry Lewis Shake 'Em On Down
DYEAR=1961
DGENRE=Blues
TTITLE0=John Henry
TTITLE1=When My Baby Left Me
TTITLE2=Shake 'Em On Down
TTITLE3=Big Chief Blues
TTITLE4=Old Blue
TTITLE5=I'm Going To Brownsville
TTITLE6=Back On My Feet Again
TTITLE7=White Lightnin'
TTITLE8=Roberta
TTITLE9=St Louis Blues
TTITLE10=Baby You Don't Want Me
TTITLE11=Done Changed My Mind
TTITLE12=Goin' To Kansas City
TTITLE13=Judge Boushay Blues
TTITLE14=Casey Jones
TTITLE15=This Time Tomorrow
TTITLE16=I Will Turn Your Money Green
TTITLE17=Frankie and Johnnie
TTITLE18=Longing Blues
TTITLE19=Long Tall Gal Blues
EXTD=Furry Lewis - vocals and guitar\nSelections #1-10 recorded April 3 and 4, 1961, and originally released as "Back On My Feet Again" (Prestige/Bluesville 1036) - #11-20 recorded May 1961, and originally released as "Done Changed My Mind" (Prestige/Blues
EXTD=ville 1037).\nDigital remastering, 1992 - Phil De Lancie (Fantasy Studios, Berkeley)
EXTT0=
EXTT1=
EXTT2=
EXTT3=
EXTT4=
EXTT5=
EXTT6=
EXTT7=
EXTT8=
EXTT9=
EXTT10=
EXTT11=
EXTT12=
EXTT13=
EXTT14=
EXTT15=
EXTT16=
EXTT17=
EXTT18=
EXTT19=
PLAYORDER=
